<svg width="20" height="21" viewBox="0 0 20 21" fill="none" xmlns="http://www.w3.org/2000/svg">
<path d="M14.7137 14.7759C13.9862 15.5034 12.5186 16.971 11.4131 18.0765C10.6321 18.8575 9.36726 18.8575 8.58622 18.0764C7.5006 16.9908 6.06013 15.5504 5.28563 14.7759C2.68213 12.1724 2.68213 7.95126 5.28563 5.34776C7.88912 2.74427 12.1102 2.74427 14.7137 5.34776C17.3172 7.95126 17.3172 12.1724 14.7137 14.7759Z" stroke="#000" stroke-linecap="round" stroke-linejoin="round"/>
<path d="M12.4997 10.0618C12.4997 11.4425 11.3804 12.5618 9.99967 12.5618C8.61896 12.5618 7.49967 11.4425 7.49967 10.0618C7.49967 8.6811 8.61896 7.56181 9.99967 7.56181C11.3804 7.56181 12.4997 8.6811 12.4997 10.0618Z" stroke="#000" stroke-linecap="round" stroke-linejoin="round"/>
</svg>
