<svg width="40" height="40" viewBox="0 0 40 40" fill="none" xmlns="http://www.w3.org/2000/svg">
<path d="M17.5642 7.00061C15.2494 6.98018 13.0688 7.47616 11.2335 8.45336C11.246 8.45373 9.48741 9.49963 9.5 9.5C10.5867 9.53753 12.9292 9.79046 14.5 10C16.0706 10.2097 18.1062 10.4589 19.5 12C20.894 13.541 21.4454 15.7502 22.1112 18.8877L22.1269 18.9608L22.1373 19.0349C22.5 21 24.8732 22.4905 27.3473 23.6763C29.4583 24.6881 32.1685 25.4106 34.7411 26.1461C35.8933 21.1014 33.1595 13.9485 27.3356 10.1067C24.1954 8.03514 20.7529 7.02878 17.5642 7.00061ZM7.35467 12.1003C4.17261 17.4563 6.72455 25.3157 13.6641 29.8937C20.4923 34.3982 28.7479 33.865 32.7212 29.1923C30.3997 28.5459 27.7679 27.8118 25.351 26.6535C22.2344 25.1598 19.2639 22.6497 18.6645 18.7515C18.0937 16.0815 17.331 14.6566 16.6989 13.9578C16.0642 13.2556 15.5693 13.0848 14.6778 12.9661C13.7863 12.8469 12.5611 12.932 11.11 12.882C9.97927 12.8431 8.65255 12.6844 7.35467 12.1003ZM18.6645 18.7515C18.6673 18.7638 18.6702 18.775 18.6728 18.7874L18.6467 18.6403C18.652 18.6777 18.6587 18.7141 18.6645 18.7515Z" fill="#673220"/>
</svg>
