<svg width="20" height="21" viewBox="0 0 20 21" fill="none" xmlns="http://www.w3.org/2000/svg">
<path d="M2.5 5.06181C2.5 4.14133 3.24619 3.39514 4.16667 3.39514H6.89937C7.25806 3.39514 7.57651 3.62467 7.68994 3.96495L8.93811 7.70948C9.06926 8.10291 8.89115 8.5329 8.52022 8.71836L6.63917 9.65889C7.55771 11.6962 9.19898 13.3374 11.2363 14.256L12.1768 12.3749C12.3622 12.004 12.7922 11.8259 13.1857 11.957L16.9302 13.2052C17.2705 13.3186 17.5 13.6371 17.5 13.9958V16.7285C17.5 17.6489 16.7538 18.3951 15.8333 18.3951H15C8.09644 18.3951 2.5 12.7987 2.5 5.89514V5.06181Z" stroke="#000" stroke-linecap="round" stroke-linejoin="round"/>
</svg>
