<svg width="243" height="247" viewBox="0 0 243 247" fill="none" xmlns="http://www.w3.org/2000/svg">
<path d="M7.46731 112.332L6.89527 112.264L7.6148 111.08L8.43021 104.162L8.94862 104.223L8.12268 111.231L13.8252 111.903C13.9325 111.916 14.1437 112.43 14.0847 112.93L14.0637 113.109L7.46731 112.332ZM8.367 104.698L8.34803 104.859L7.70884 104.132L8.96995 102.812C9.10032 102.936 9.22539 103.259 9.25686 103.607L14.6376 104.241C14.7428 104.272 14.9593 104.895 14.9129 105.289L14.8918 105.467L8.367 104.698ZM12.252 112.334L13.158 104.647L13.6585 104.706L12.7525 112.393L12.252 112.334ZM14.9936 116.137L14.4395 116.071L15.139 114.903L15.6552 110.524L16.1736 110.585L15.6469 115.054L22.1002 115.814C22.2075 115.827 22.4366 116.343 22.3797 116.826L22.3587 117.005L14.9936 116.137ZM15.5752 111.203L15.5541 111.382L14.917 110.636L16.1939 109.337C16.3222 109.478 16.4315 109.781 16.4451 110.127L22.3442 110.823C22.4494 110.853 22.6858 111.461 22.6395 111.854L22.6184 112.033L15.5752 111.203ZM20.304 116.291L20.9024 111.215L21.4208 111.276L20.8225 116.353L20.304 116.291ZM15.9755 107.806L15.4213 107.741L16.1209 106.573L16.6645 101.961L17.1829 102.022L16.6288 106.723L23.1357 107.49C23.2608 107.505 23.4742 108.002 23.4173 108.484L23.3941 108.681L15.9755 107.806ZM16.5739 102.73L16.5528 102.908L15.9157 102.163L17.1926 100.863C17.323 100.987 17.4302 101.308 17.4417 101.672L23.4838 102.384C23.589 102.415 23.8076 103.02 23.7612 103.414L23.7423 103.574L16.5739 102.73ZM21.2754 108.05L21.8948 102.795L22.4132 102.856L21.7938 108.112L21.2754 108.05Z" fill="#FEF9F8"/>
<path d="M19.1026 87.7665L21.9012 79.8783L21.1165 78.6449C21.1165 78.6449 22.2169 77.9657 22.9813 77.5876C23.1559 77.6877 23.1805 77.8874 23.0963 78.1249L19.6596 87.8113L19.1026 87.7665ZM15.6446 86.1004L18.0822 79.23L17.3313 78.0086C17.3313 78.0086 18.4378 77.3125 19.1683 76.9223C19.3369 77.0394 19.3615 77.2391 19.2832 77.4597L16.2017 86.1452L15.6446 86.1004ZM13.553 81.1755L14.3704 79.5174C14.5899 79.6526 14.7174 79.8315 14.6287 80.2966L28.8785 85.3523C29.0312 85.4065 29.1171 85.9717 28.9666 86.3958L28.8884 86.6164L13.553 81.1755ZM21.0094 82.4458C23.96 82.3658 27.0183 81.1208 28.8213 79.4303L28.9789 79.5244C28.8843 80.0065 29.0851 80.5171 29.5787 80.9023C27.4567 82.3077 24.4202 83.0066 21.0318 82.7594L21.0094 82.4458ZM20.4256 84.0913L20.8649 82.853L21.1364 82.9493C23.8195 85.2382 25.4197 88.4798 25.7805 92.5232L25.4488 92.5965C24.7877 89.0768 22.9314 86.1263 20.4256 84.0913ZM12.5925 90.881L12.0496 90.6884L13.0017 89.7274L14.043 86.7927L14.5349 86.9672L13.4576 90.0038L22.9913 93.3862C23.127 93.4344 23.254 93.9378 23.0915 94.3958L23.0253 94.5824L12.5925 90.881ZM13.8022 87.4712L13.742 87.6409L13.2692 86.7664L14.7904 85.8164C14.89 85.9663 14.9294 86.2859 14.8939 86.6553L23.3419 89.6526C23.4547 89.7117 23.5625 90.3229 23.4301 90.6961L23.3699 90.8657L13.8022 87.4712ZM20.2881 93.0383L21.5038 89.6116L21.9958 89.7861L20.78 93.2129L20.2881 93.0383Z" fill="#FEF9F8"/>
<path d="M32.4322 74.819L39.867 63.0792L39.3794 61.6625C39.3794 61.6625 40.6319 61.1987 41.5053 60.9634C41.6284 61.1054 41.6082 61.3056 41.4733 61.5185L32.9599 74.9614L32.4322 74.819ZM28.6542 70.0188L34.1052 61.4117L33.6383 60.0294C33.6383 60.0294 34.8908 59.5656 35.6993 59.3319C35.8473 59.4682 35.827 59.6685 35.6826 59.8966L29.1723 70.1765L28.6542 70.0188ZM24.9341 66.4058L30.1731 58.1332L29.7215 56.7606C29.7215 56.7606 30.8842 56.3038 31.7576 56.0686C31.896 56.2202 31.8854 56.4052 31.7409 56.6333L25.2306 66.9132L24.9341 66.4058ZM23.6672 60.2983L24.8457 58.8075C25.0297 58.988 25.0951 59.2211 24.9152 59.6398L37.3545 67.5176L36.6996 68.5517L23.6672 60.2983ZM22.2044 63.7183L23.7327 62.449C23.8614 62.6158 23.8827 62.885 23.646 63.2251C25.6508 65.8796 26.9729 68.8049 27.3237 71.4133L27.0216 71.5203C26.2323 69.1668 24.4794 66.1818 22.2044 63.7183Z" fill="#FEF9F8"/>
<path d="M49.1808 51.1062L54.6433 45.6737L55.0114 46.0438L49.5489 51.4763L49.1808 51.1062ZM41.6216 46.0323L48.1818 39.5082L48.0075 38.0822C48.0075 38.0822 49.268 37.9457 50.1081 37.9225C50.2094 38.101 50.158 38.2791 49.9793 38.4568L42.0918 46.3009L41.6216 46.0323ZM44.5144 35.5142L46.4238 35.4686C46.4104 35.6849 46.1807 35.9134 45.7474 36.1159C44.4434 38.1996 42.1821 41.2608 39.9352 43.7239L39.6557 43.5449C41.5974 40.9792 43.6815 37.5357 44.5144 35.5142ZM35.4141 44.6915C38.628 42.3329 40.047 44.7297 38.5821 45.1457C37.7686 44.7616 36.3813 44.745 35.4261 44.9333L35.4141 44.6915ZM37.2493 48.4258C40.2852 46.0413 41.6788 48.3617 40.2394 48.7777C39.464 48.4319 38.1657 48.4538 37.2486 48.6804L37.2493 48.4258ZM43.079 52.9603C43.2321 52.808 43.2577 52.7572 43.1315 52.375C42.9297 51.6871 42.9297 51.6871 40.2007 44.3737L40.5066 44.1964C41.5063 46.3247 43.3025 50.3517 43.7331 51.142C43.999 51.6392 44.3031 52.1237 44.6205 52.4427C45.1917 52.9916 46.1202 53.2105 47.11 54.3079C47.6303 54.8821 47.6923 55.455 47.2711 55.8739C47.0414 56.1023 46.6598 56.0249 46.2153 55.6546C45.0993 54.1751 44.0582 53.2558 43.5743 53.3563C43.2942 53.3809 43.0773 53.5458 42.7712 53.7995L42.5046 53.5315C42.5046 53.5315 42.9386 53.0999 43.079 52.9603ZM50.8844 42.5831L50.744 42.7227L50.7085 41.7426L52.5166 41.493C52.5288 41.684 52.4516 41.9892 52.2471 42.2941L56.1437 46.2124C56.2198 46.3144 56.0017 46.9375 55.7337 47.204L55.6061 47.3309L50.8844 42.5831ZM42.4284 39.6451L43.1565 38.6925L49.1729 44.7421C49.1729 44.7421 48.8921 45.0214 48.4709 45.4402L48.3305 45.5799L42.4284 39.6451ZM45.3197 48.1172L44.9262 47.7215L46.2131 47.2287L51.3438 42.1262L51.7119 42.4963L46.5046 47.6749L50.6298 51.8229C50.7186 51.9123 50.5644 52.4464 50.2198 52.7891L50.0922 52.916L45.3197 48.1172Z" fill="#FEF9F8"/>
<path d="M64.3793 33.2723L63.9136 32.9691C64.6228 31.761 64.8762 30.9443 64.3568 29.7406L64.8492 30.1544C63.466 30.3191 62.9068 30.1381 62.6109 29.665C62.315 29.192 62.4082 28.5604 62.9728 28.2071C63.3085 27.9971 63.5947 27.9455 63.9725 28.0064C64.2855 28.2352 64.4554 28.4049 64.6941 28.7864C65.6678 30.343 65.3899 31.8332 64.3793 33.2723Z" fill="#FEF9F8"/>
<path d="M91.094 16.0672C91.094 16.0672 92.6674 16.6435 93.6811 17.0907C93.7012 17.3125 93.5379 17.4456 93.266 17.5404L78.4617 22.701L78.0962 22.1994L90.5209 17.8683L91.094 16.0672Z" fill="#FEF9F8"/>
<path d="M105.928 8.77645L114.478 7.81648L115.198 6.64883C115.198 6.64883 116.232 7.31156 116.901 7.7799C116.869 7.98269 116.718 8.09021 116.45 8.12033L106.129 9.27913L105.928 8.77645ZM113.048 12.6683C118.747 14.2201 118.417 17.4089 116.867 16.6772C116.194 15.3581 114.276 13.7621 112.87 12.8514L113.048 12.6683ZM100.813 11.9409L105.732 11.3886L106.42 10.2607C106.42 10.2607 107.415 10.8917 108.03 11.3661C108.016 11.5669 107.847 11.6764 107.597 11.7045L101.014 12.4436L100.813 11.9409ZM103.496 11.6396L104.73 11.5011L104.762 11.7873C104.406 14.9065 103.358 17.8317 101.613 20.2011L101.321 20.0166C102.557 17.6319 103.241 14.5302 103.496 11.6396ZM103.231 7.5034L105.042 7.49933C105.036 7.77166 104.911 7.94872 104.454 8.07249L106.161 23.277C106.181 23.4558 105.726 23.7605 105.315 23.8067L105.064 23.8348L103.231 7.5034ZM105.016 13.081C108.808 14.1043 108.054 16.58 106.826 15.8121C106.511 14.9418 105.592 13.8496 104.835 13.2462L105.016 13.081ZM110.891 12.4938L111.243 11.911L112.569 12.2693C112.533 12.4363 112.384 12.5617 112.066 12.6336L113.175 22.5076C113.167 22.599 112.716 22.9395 112.287 22.9877L112.072 23.0118L110.891 12.4938ZM111.723 8.12576L112.993 7.98317L113.025 8.26937C112.149 12.2439 109.949 15.8781 106.591 18.5555L106.348 18.3292C109.122 15.6087 111.01 11.7741 111.723 8.12576Z" fill="#FEF9F8"/>
<path d="M130.162 10.405L135.349 10.9874L135.291 11.5061L130.265 10.9418L130.162 10.405ZM134.759 10.9211L134.58 10.901L135.304 10.2578L136.506 11.4976C136.364 11.6266 136.14 11.692 135.756 11.7213C134.947 18.604 134.485 21.2691 133.748 22.0196C133.312 22.5141 132.664 22.6406 132.056 22.5723C132.094 22.2324 132.091 21.9422 131.896 21.7392C131.719 21.5383 131.253 21.3409 130.797 21.1993L130.85 20.8972C131.346 20.9892 132.125 21.1491 132.429 21.1833C132.734 21.2174 132.863 21.1957 133.006 21.0488C133.551 20.5485 133.952 17.6229 134.759 10.9211ZM132.336 7.00838L133.996 7.39392C133.932 7.64033 133.769 7.80314 133.313 7.82449L132.829 12.1354C132.386 15.9256 131.383 20.3412 127.822 22.6946L127.562 22.43C130.531 19.8652 131.36 15.7018 131.778 11.9811L132.336 7.00838ZM137.078 9.78676L137.14 9.23225L138.223 9.91529L140.924 10.2185L140.864 10.7552L138.073 10.4419L136.675 22.8917C136.659 23.0348 136.252 23.2788 135.751 23.2226L135.572 23.2025L137.078 9.78676ZM140.369 10.1563L140.226 10.1402L140.869 9.57842L141.993 10.7008C141.891 10.7981 141.665 10.8813 141.408 10.9069L140.097 22.5875C140.065 22.7107 139.494 22.9545 139.1 22.9103L138.939 22.8923L140.369 10.1563ZM136.366 20.3211L139.729 20.6987L139.671 21.2174L136.308 20.8399L136.366 20.3211ZM126.306 8.45054L126.368 7.89602L127.415 8.57505L129.812 8.84417L129.756 9.34502L127.269 9.06586L126.068 19.7627C126.054 19.8879 125.648 20.114 125.183 20.0618L125.004 20.0417L126.306 8.45054ZM129.186 8.77388L129.025 8.7558L129.707 8.16224L130.865 9.30654C130.743 9.4197 130.477 9.53469 130.185 9.55622L129.118 19.0545C129.086 19.1777 128.535 19.4057 128.16 19.3635L127.999 19.3455L129.186 8.77388ZM125.823 17.1087L128.792 17.4421L128.732 17.9787L125.763 17.6453L125.823 17.1087Z" fill="#FEF9F8"/>
<path d="M162.137 13.9362L163.754 14.7097C163.637 14.9358 163.453 15.0813 162.988 14.9953L158.052 29.1537C157.993 29.3237 157.422 29.4297 157.031 29.2935L156.81 29.2164L162.137 13.9362ZM161.574 17.1904L163.529 17.8718L164.632 17.1126C164.632 17.1126 165.233 18.1228 165.582 18.8163C165.466 18.9855 165.284 19.0172 165.046 18.9342L161.408 17.6663L161.574 17.1904ZM160.395 20.5728L162.146 21.183L163.226 20.435C163.226 20.435 163.81 21.4392 164.16 22.1328C164.043 22.302 163.861 22.3336 163.623 22.2507L160.223 21.0657L160.395 20.5728ZM159.138 24.29L161.398 25.078L162.524 24.3078C162.524 24.3078 163.154 25.3467 163.463 26.0455C163.364 26.2206 163.181 26.2522 162.943 26.1693L158.966 24.7829L159.138 24.29ZM154.395 18.4813L157.625 19.607L157.453 20.0999L154.376 19.0275L154.395 18.4813ZM155.342 14.9989L158.81 16.2076L158.638 16.7005L155.324 15.5452L155.342 14.9989ZM159.253 12.912L160.854 13.6796C160.72 13.8998 160.542 14.0283 160.093 13.9481L157.456 21.5117C156.266 24.8712 154.368 26.7068 150.357 27.0049L150.253 26.7017C153.585 26.1097 155.254 24.3849 156.386 21.1385L159.253 12.912ZM152.472 22.1381C153.189 22.2162 154.884 22.3305 156.584 22.4277L156.575 22.6724C155.759 22.8263 154.537 23.1056 153.03 23.3811C152.908 23.5672 152.702 23.6669 152.514 23.6586L152.472 22.1381ZM151.435 11.826L151.619 11.2991L152.54 12.2111L154.834 13.011L154.657 13.5209L152.277 12.6914L148.604 23.2295C148.562 23.3485 148.099 23.4731 147.64 23.3131L147.453 23.2479L151.435 11.826ZM154.325 12.8332L154.172 12.7799L154.986 12.3584L155.889 13.7597C155.745 13.8432 155.46 13.8962 155.153 13.8464L151.942 23.0588C151.889 23.1548 151.279 23.266 150.922 23.1416L150.752 23.0824L154.325 12.8332ZM149.159 20.0492L152.015 21.0446L151.843 21.5375L148.988 20.5421L149.159 20.0492Z" fill="#FEF9F8"/>
<path d="M168.79 33.5143C168.714 33.6364 168.235 33.6552 167.807 33.3879L167.624 33.2734L174.689 21.9811L175.396 23.1243L179.013 25.3868L178.726 25.8446L175.033 23.5343L168.79 33.5143ZM179.548 22.4945C179.338 22.6604 179.088 22.6526 178.768 22.4522C177.978 22.9346 176.783 23.5885 175.995 23.9659L175.629 23.7368C176.28 23.1036 177.434 21.9364 178.185 21.1106L179.548 22.4945ZM185.782 29.6006L186.813 29.3111L187.379 31.0876C187.18 31.1333 186.949 31.0951 186.595 30.9156C182.956 36.4949 180.543 39.7413 179.281 40.1624C178.545 40.4235 177.776 40.261 177.043 39.8028C177.253 39.467 177.374 39.1389 177.24 38.8431C177.111 38.5073 176.584 37.9232 176.025 37.425L176.203 37.1751C176.842 37.681 177.883 38.4599 178.25 38.689C178.555 38.8799 178.696 38.9258 178.963 38.8381C179.911 38.6458 182.416 35.1171 185.95 29.7056L185.782 29.6006ZM178.357 24.9763L179.313 24.7038L179.932 26.4289C179.749 26.4842 179.423 26.4287 179.079 26.2988L173.218 35.6684C173.136 35.7657 172.525 35.7234 172.189 35.5134L172.037 35.4179L178.509 25.0717L178.357 24.9763ZM179.36 29.9566C181.997 33.9206 179.556 35.8543 179.001 34.2971C179.467 33.1449 179.382 31.2445 179.116 29.9736L179.36 29.9566ZM186.637 30.1352L186.351 30.593L181.467 27.5381L181.937 27.1949L186.637 30.1352ZM185.168 26.1373C185.011 26.2518 184.748 26.2993 184.422 26.0741C182.265 27.8247 179.841 29.1535 177.683 29.6506L177.565 29.3643C179.502 28.4741 181.924 26.7408 183.898 24.7058L185.168 26.1373ZM176.487 29.7302L176.2 30.188L171.943 27.5245L172.229 27.0667L176.487 29.7302ZM173.68 34.2166L173.394 34.6744L169.136 32.0109L169.422 31.5531L173.68 34.2166Z" fill="#FEF9F8"/>
<path d="M199.517 39.5703L200.069 40.9561L199.915 40.8038L199.167 41.5568C199.167 41.5568 198.898 41.2903 198.35 40.7445L199.517 39.5703ZM190.124 48.5821C190.939 49.0126 192.915 49.9363 194.89 50.8346L194.802 51.0766C193.757 50.825 191.745 50.3723 189.72 49.8051L190.124 48.5821ZM199.369 40.9708L199.446 41.276L191.132 49.6358L190.138 49.2058L190.813 49.2166C190.395 49.9687 189.708 50.047 189.415 49.9333L189.932 48.3154C190.505 48.5047 190.645 48.4916 190.899 48.2363L198.743 40.3488L199.369 40.9708ZM203.07 40.1587C204.847 43.1194 202.547 44.1313 202.288 42.7573C202.706 42.0816 202.881 40.9356 202.841 40.1084L203.07 40.1587ZM200.419 52.7285C200.19 52.7291 200.037 52.6277 199.896 52.2845C198.496 52.0847 196.98 51.6688 195.909 51.1881L195.998 50.9206C197.118 51.0448 198.836 51.0528 200.3 50.9087L200.419 52.7285ZM197.679 46.7285C195.893 49.9027 196.093 53.3259 197.719 56.4907L197.566 56.6184C197.183 56.314 196.662 56.2773 196.14 56.5205C194.897 53.2274 195.181 50.0319 197.36 46.6148L197.679 46.7285ZM204.153 45.0178L205.133 44.9769L205.367 46.7836C205.176 46.7969 204.883 46.6831 204.577 46.4803L200.502 50.5773C200.413 50.6411 199.815 50.4264 199.547 50.1599L199.419 50.0329L204.28 45.1447L204.153 45.0178ZM200.704 49.7367L200.336 50.1068L195.116 44.9154L195.484 44.5453L200.704 49.7367ZM202.722 47.6819L202.341 48.0648L197.146 42.8988L197.527 42.5159L202.722 47.6819ZM204.791 45.6524L204.41 46.0353L199.216 40.8694L199.596 40.4865L204.791 45.6524ZM189.42 42.8565C189.574 43.0088 189.625 43.0341 190.019 42.9185C190.68 42.713 190.68 42.713 198.093 39.956L198.259 40.2483C196.098 41.2471 192.03 43.0911 191.242 43.5006C190.721 43.7693 190.238 44.0761 189.947 44.3951C189.388 44.9567 189.162 45.8992 188.095 46.8949C187.524 47.4183 186.939 47.4963 186.505 47.0648C186.288 46.849 186.376 46.4542 186.744 46.0331C188.217 44.909 189.13 43.8373 189.015 43.3667C188.963 43.0869 188.81 42.8582 188.567 42.5661L188.846 42.2853C188.846 42.2853 189.28 42.7169 189.42 42.8565ZM193.567 37.0538C195.892 40.4076 193.605 41.6612 193.206 40.2495C193.509 39.4341 193.505 38.0086 193.337 37.0545L193.567 37.0538ZM197.481 35.032C199.794 38.5004 197.469 39.8432 197.02 38.4062C197.361 37.5525 197.382 36.0251 197.227 35.0327L197.481 35.032Z" fill="#FEF9F8"/>
<path d="M217.155 64.5921C217.155 64.5921 217.057 65.3788 216.934 65.9252C216.738 65.9855 216.585 65.912 216.46 65.7143L214.043 61.8974L214.407 61.4964L216.314 64.5074L217.155 64.5921ZM218.682 63.6042C218.682 63.6042 218.583 64.3909 218.446 64.9469C218.249 65.0072 218.096 64.9337 217.961 64.7208L215.563 60.9343L215.943 60.5237L217.84 63.5195L218.682 63.6042ZM208.656 64.158C206.98 67.0949 207.835 70.6654 209.975 74.7855L209.783 74.8859C209.457 74.5386 208.985 74.4327 208.486 74.6207C206.642 70.3978 206.28 67.1334 208.335 64.0206L208.656 64.158ZM211.871 69.1322L212.971 69.4576L212.625 71.2322C212.427 71.1876 212.29 71.0396 212.034 70.6691C208.466 70.5854 205.24 68.4523 202.091 64.5233L202.261 64.2876C205.414 67.6174 208.689 69.5919 211.976 69.2995L211.871 69.1322ZM212.525 70.1663L212.084 70.4455L207.404 63.055L207.758 62.6388L212.525 70.1663ZM215.282 66.3109L212.652 67.977L212.122 67.1406L214.753 65.4745L215.282 66.3109ZM213.549 63.5736L210.918 65.2397L210.388 64.4034L213.019 62.7373L213.549 63.5736ZM214.485 70.0974L214.028 70.3863L208.799 62.1289L209.255 61.84L214.485 70.0974ZM211.814 59.6229L212.046 61.0315L216.505 68.0724L217.341 68.1819L217.219 69.772C217.039 69.7578 216.867 69.6539 216.638 69.3938L214.19 70.9444C214.129 70.9829 213.67 70.7624 213.391 70.3214L213.285 70.1541L216.068 68.3917L211.474 61.138L208.873 62.7848C208.797 62.833 208.402 62.6789 208.093 62.1922L207.997 62.0402L211.814 59.6229ZM217.025 57.7926L217.257 59.2013L220.445 64.2348L221.306 64.3499L221.159 65.9344C220.979 65.9202 220.817 65.8315 220.578 65.5563L217.476 67.5209C217.4 67.5691 216.956 67.3389 216.677 66.8979L216.581 66.7458L220.017 64.5693L216.685 59.3077L213.385 61.3976C213.309 61.4457 212.898 61.3012 212.59 60.8146L212.494 60.6625L217.025 57.7926ZM204.987 59.6425C205.093 59.8098 205.147 59.861 205.553 59.7956C206.224 59.7115 206.224 59.7115 213.715 58.1844L213.838 58.5118C211.615 59.1738 207.473 60.3051 206.628 60.5849C206.074 60.7866 205.545 60.9939 205.165 61.2347C204.49 61.6832 204.045 62.5617 202.769 63.3058C202.111 63.6798 201.523 63.6261 201.196 63.109C201.022 62.8353 201.18 62.4795 201.648 62.1409C203.303 61.3907 204.477 60.5194 204.497 60.0804C204.5 59.7809 204.41 59.5391 204.238 59.2005L204.573 58.9886C204.573 58.9886 204.881 59.4752 204.987 59.6425ZM210.562 55.0892C212.202 58.4185 209.672 59.1682 209.587 57.688C210.076 57.0803 210.328 55.8977 210.339 55.039L210.562 55.0892ZM214.695 53.8779C216.314 57.4763 213.714 58.2493 213.649 56.7347C214.18 56.058 214.46 54.7512 214.457 53.8373L214.695 53.8779Z" fill="#FEF9F8"/>
<path d="M216.412 82.1289C216.514 82.4173 216.505 82.5541 216.391 82.8238C215.304 84.9284 215.661 86.9027 216.78 90.058C217.46 91.975 218.002 93.5017 218.785 95.4395L218.564 95.5177C218.276 95.0279 217.801 94.8719 217.262 94.9677C216.72 93.4409 216.172 91.8972 215.528 90.0821C214.379 86.8419 214.367 85.0318 215.826 82.7379C216.002 82.4271 215.908 82.2695 215.627 82.1781C214.958 82.0144 213.468 81.5306 212.461 81.2767C212.356 81.4096 212.202 81.4069 212.041 81.3303L213.003 79.843C214.094 80.602 216.273 81.7387 216.412 82.1289ZM228.905 80.4659C228.844 85.0329 225.737 85.1039 226.191 83.5296C227.227 82.9518 228.235 81.4864 228.703 80.3274L228.905 80.4659ZM227.255 88.5192L228.262 89.0976L227.531 90.7513C227.33 90.6697 227.23 90.4952 227.067 90.0372C223.423 88.809 219.218 85.9464 216.011 82.2903L216.205 82.0304C219.33 84.9707 223.843 87.8388 227.327 88.7227L227.255 88.5192ZM227.495 89.1977L226.986 89.3783L222.791 77.5544L223.246 77.2212L227.495 89.1977Z" fill="#FEF9F8"/>
<path d="M229.868 110.174C229.699 110.121 229.567 109.919 229.462 109.497L228.247 109.64C228.24 109.586 228.213 109.354 228.114 108.514L230.241 108.263L229.868 110.174ZM220.69 108.881C220.959 109.629 221.686 111.338 222.445 113.006L222.187 113.127C221.67 112.427 220.545 111.037 219.524 109.599L220.69 108.881ZM229.379 109.253L229.248 109.522L220.846 110.512L220.24 109.369L220.787 109.704C220.007 110.158 219.4 109.777 219.225 109.525L220.529 108.592C221.005 109.243 221.142 109.336 221.446 109.3L229.276 108.377L229.379 109.253ZM234.892 101.897C233.994 105.501 231.405 104.755 232.166 103.523C233.085 103.324 234.142 102.457 234.726 101.717L234.892 101.897ZM231.79 103.259C226.671 103.808 222.151 104.051 218.251 101.72L218.402 101.466C222.426 103.004 226.851 102.718 231.643 102.008L231.79 103.259ZM228.804 106.221L228.268 106.284L227.87 102.906L228.406 102.843L228.804 106.221ZM228.705 105.381L229.498 105.958L228.566 107.427C228.39 107.321 228.276 107.117 228.196 106.746C222.872 107.247 220.454 107.187 219.601 106.563C219.086 106.189 218.815 105.586 218.742 104.96C219.099 104.918 219.399 104.847 219.552 104.611C219.708 104.393 219.79 103.858 219.804 103.367L220.128 103.347C220.136 103.872 220.168 104.756 220.203 105.06C220.239 105.364 220.31 105.501 220.47 105.627C221.029 106.068 223.601 106.055 228.726 105.56L228.705 105.381ZM233.182 105.995C233.182 105.995 232.541 107.013 232.054 107.651C231.853 107.638 231.743 107.47 231.713 107.22L230.889 100.23L231.409 100.024L232.03 105.297L233.182 105.995ZM235.375 110.757C235.187 110.707 235.003 110.529 234.973 110.116C232.606 109.561 230.539 108.482 229.146 107.123L229.314 106.85C230.878 107.826 233.259 108.65 235.738 108.92L235.375 110.757ZM234.324 114.76C234.324 114.76 233.705 115.812 233.198 116.433C232.995 116.403 232.889 116.27 232.859 116.02L231.995 108.691L232.532 108.628L233.17 114.044L234.324 114.76ZM228.755 116.721C228.602 116.649 228.443 116.377 228.528 116.023C227.778 115.35 226.515 114.013 225.652 112.846L225.808 112.628C226.913 113.549 228.662 114.702 229.588 115.173L228.755 116.721ZM231.246 115.558C231.088 115.449 231.063 115.235 231.159 114.97C230.442 113.659 229.634 111.108 229.192 109.202L229.459 109.008C230.11 110.689 231.213 112.97 232.109 114.115L231.246 115.558ZM230.179 111.424C226.259 112.611 222.745 114.783 221.597 117.964L221.414 117.949C221.254 117.515 220.849 117.146 220.22 117.039C221.9 113.922 225.31 112.252 230.034 111.115L230.179 111.424Z" fill="#FEF9F8"/>
<path d="M235.089 133.902L235.661 133.969L234.942 135.153L234.126 142.071L233.608 142.01L234.434 135.003L228.731 134.331C228.624 134.318 228.413 133.804 228.472 133.303L228.493 133.124L235.089 133.902ZM234.19 141.535L234.209 141.374L234.848 142.102L233.587 143.421C233.456 143.297 233.331 142.974 233.3 142.626L227.919 141.992C227.814 141.962 227.597 141.338 227.644 140.945L227.665 140.766L234.19 141.535ZM230.305 133.9L229.399 141.587L228.898 141.528L229.804 133.841L230.305 133.9ZM227.563 130.097L228.117 130.162L227.418 131.33L226.901 135.71L226.383 135.649L226.91 131.18L220.456 130.419C220.349 130.406 220.12 129.89 220.177 129.407L220.198 129.229L227.563 130.097ZM226.981 135.03L227.003 134.852L227.64 135.597L226.363 136.897C226.234 136.755 226.125 136.452 226.112 136.106L220.212 135.411C220.107 135.38 219.871 134.772 219.917 134.379L219.938 134.2L226.981 135.03ZM222.253 129.942L221.654 135.019L221.136 134.958L221.734 129.881L222.253 129.942ZM226.581 138.427L227.135 138.492L226.436 139.66L225.892 144.273L225.374 144.211L225.928 139.51L219.421 138.743C219.296 138.728 219.082 138.232 219.139 137.749L219.162 137.553L226.581 138.427ZM225.983 143.504L226.004 143.325L226.641 144.071L225.364 145.37C225.234 145.246 225.126 144.925 225.115 144.562L219.073 143.849C218.968 143.819 218.749 143.213 218.795 142.82L218.814 142.659L225.983 143.504ZM221.281 138.183L220.662 143.439L220.143 143.377L220.763 138.122L221.281 138.183Z" fill="#FEF9F8"/>
<path d="M223.454 158.467L220.655 166.355L221.44 167.589C221.44 167.589 220.34 168.268 219.575 168.646C219.401 168.546 219.376 168.346 219.46 168.108L222.897 158.422L223.454 158.467ZM226.912 160.133L224.474 167.003L225.225 168.225C225.225 168.225 224.119 168.921 223.388 169.311C223.22 169.194 223.195 168.994 223.273 168.774L226.355 160.088L226.912 160.133ZM229.004 165.058L228.186 166.716C227.967 166.581 227.839 166.402 227.928 165.937L213.678 160.881C213.525 160.827 213.44 160.262 213.59 159.838L213.668 159.617L229.004 165.058ZM221.547 163.788C218.597 163.868 215.538 165.113 213.735 166.803L213.578 166.709C213.672 166.227 213.472 165.716 212.978 165.331C215.1 163.926 218.136 163.227 221.525 163.474L221.547 163.788ZM222.131 162.142L221.692 163.38L221.42 163.284C218.737 160.995 217.137 157.754 216.776 153.71L217.108 153.637C217.769 157.157 219.625 160.107 222.131 162.142ZM229.964 155.352L230.507 155.545L229.555 156.506L228.514 159.441L228.022 159.266L229.099 156.23L219.565 152.847C219.43 152.799 219.303 152.296 219.465 151.838L219.531 151.651L229.964 155.352ZM228.754 158.762L228.815 158.593L229.287 159.467L227.766 160.417C227.667 160.267 227.627 159.947 227.663 159.578L219.215 156.581C219.102 156.522 218.994 155.911 219.127 155.537L219.187 155.368L228.754 158.762ZM222.269 153.195L221.053 156.622L220.561 156.447L221.777 153.021L222.269 153.195Z" fill="#FEF9F8"/>
<path d="M210.123 171.414L202.689 183.154L203.176 184.571C203.176 184.571 201.924 185.035 201.05 185.27C200.927 185.128 200.948 184.928 201.082 184.715L209.596 171.272L210.123 171.414ZM213.901 176.215L208.451 184.822L208.917 186.204C208.917 186.204 207.665 186.668 206.856 186.902C206.708 186.765 206.729 186.565 206.873 186.337L213.383 176.057L213.901 176.215ZM217.622 179.828L212.383 188.1L212.834 189.473C212.834 189.473 211.671 189.93 210.798 190.165C210.66 190.013 210.67 189.828 210.815 189.6L217.325 179.32L217.622 179.828ZM218.888 185.935L217.71 187.426C217.526 187.245 217.461 187.012 217.64 186.594L205.201 178.716L205.856 177.682L218.888 185.935ZM220.351 182.515L218.823 183.784C218.694 183.618 218.673 183.348 218.91 183.008C216.905 180.354 215.583 177.429 215.232 174.82L215.534 174.713C216.323 177.067 218.076 180.052 220.351 182.515Z" fill="#FEF9F8"/>
<path d="M193.376 195.127L187.913 200.56L187.545 200.19L193.008 194.757L193.376 195.127ZM200.935 200.201L194.375 206.725L194.549 208.151C194.549 208.151 193.289 208.288 192.449 208.311C192.347 208.132 192.399 207.954 192.577 207.777L200.465 199.933L200.935 200.201ZM198.042 210.719L196.133 210.765C196.146 210.548 196.376 210.32 196.809 210.118C198.113 208.034 200.375 204.973 202.621 202.51L202.901 202.688C200.959 205.254 198.875 208.698 198.042 210.719ZM207.143 201.542C203.929 203.9 202.51 201.504 203.975 201.088C204.788 201.472 206.175 201.488 207.131 201.3L207.143 201.542ZM205.307 197.808C202.271 200.192 200.878 197.872 202.317 197.456C203.093 197.801 204.391 197.78 205.308 197.553L205.307 197.808ZM199.478 193.273C199.325 193.425 199.299 193.476 199.425 193.858C199.627 194.546 199.627 194.546 202.356 201.86L202.05 202.037C201.05 199.909 199.254 195.882 198.824 195.091C198.558 194.594 198.253 194.11 197.936 193.791C197.365 193.242 196.436 193.023 195.447 191.926C194.926 191.351 194.864 190.778 195.285 190.36C195.515 190.131 195.897 190.208 196.341 190.579C197.457 192.058 198.498 192.978 198.982 192.877C199.262 192.852 199.479 192.688 199.785 192.434L200.052 192.702C200.052 192.702 199.618 193.133 199.478 193.273ZM191.672 203.65L191.813 203.511L191.848 204.491L190.04 204.74C190.028 204.549 190.105 204.244 190.31 203.939L186.413 200.021C186.337 199.919 186.555 199.296 186.823 199.029L186.951 198.902L191.672 203.65ZM200.128 206.588L199.4 207.541L193.384 201.491C193.384 201.491 193.665 201.212 194.086 200.793L194.226 200.654L200.128 206.588ZM197.237 198.116L197.63 198.512L196.344 199.005L191.213 204.107L190.845 203.737L196.052 198.558L191.927 194.41C191.838 194.321 191.992 193.787 192.337 193.444L192.464 193.317L197.237 198.116Z" fill="#FEF9F8"/>
<path d="M178.177 212.961L178.643 213.264C177.934 214.472 177.68 215.289 178.2 216.493L177.707 216.079C179.091 215.914 179.65 216.095 179.946 216.568C180.242 217.041 180.148 217.673 179.584 218.026C179.248 218.236 178.962 218.288 178.584 218.227C178.271 217.998 178.101 217.828 177.863 217.447C176.889 215.89 177.167 214.4 178.177 212.961Z" fill="#FEF9F8"/>
<path d="M151.463 230.166C151.463 230.166 149.889 229.59 148.876 229.143C148.855 228.921 149.019 228.788 149.291 228.693L164.095 223.532L164.46 224.034L152.036 228.365L151.463 230.166Z" fill="#FEF9F8"/>
<path d="M136.629 237.457L128.079 238.417L127.359 239.585C127.359 239.585 126.324 238.922 125.656 238.453C125.687 238.251 125.838 238.143 126.107 238.113L136.428 236.954L136.629 237.457ZM129.508 233.565C123.81 232.013 124.14 228.824 125.689 229.556C126.363 230.875 128.281 232.471 129.687 233.382L129.508 233.565ZM141.744 234.293L136.825 234.845L136.136 235.973C136.136 235.973 135.142 235.342 134.527 234.867C134.541 234.667 134.71 234.557 134.96 234.529L141.543 233.79L141.744 234.293ZM139.061 234.594L137.827 234.732L137.794 234.446C138.151 231.327 139.199 228.402 140.943 226.032L141.236 226.217C140 228.602 139.316 231.703 139.061 234.594ZM139.326 238.73L137.515 238.734C137.521 238.462 137.646 238.285 138.103 238.161L136.396 222.956C136.376 222.778 136.83 222.473 137.242 222.427L137.492 222.399L139.326 238.73ZM137.54 233.152C133.749 232.129 134.503 229.653 135.73 230.421C136.046 231.292 136.965 232.384 137.721 232.987L137.54 233.152ZM131.665 233.74L131.314 234.322L129.988 233.964C130.023 233.797 130.172 233.672 130.49 233.6L129.382 223.726C129.39 223.634 129.84 223.294 130.27 223.246L130.484 223.222L131.665 233.74ZM130.833 238.108L129.563 238.25L129.531 237.964C130.407 233.989 132.608 230.355 135.966 227.678L136.209 227.904C133.435 230.625 131.547 234.459 130.833 238.108Z" fill="#FEF9F8"/>
<path d="M112.395 235.828L107.207 235.246L107.266 234.727L112.292 235.292L112.395 235.828ZM107.798 235.312L107.977 235.332L107.252 235.976L106.051 234.736C106.192 234.607 106.417 234.541 106.801 234.512C107.61 227.629 108.072 224.964 108.808 224.214C109.244 223.719 109.892 223.593 110.5 223.661C110.462 224.001 110.466 224.291 110.661 224.494C110.837 224.695 111.304 224.892 111.759 225.034L111.707 225.336C111.21 225.244 110.431 225.084 110.127 225.05C109.823 225.016 109.694 225.038 109.551 225.185C109.005 225.685 108.604 228.61 107.798 235.312ZM110.22 239.225L108.561 238.839C108.625 238.593 108.788 238.43 109.243 238.409L109.727 234.098C110.171 230.308 111.174 225.892 114.735 223.539L114.995 223.803C112.026 226.368 111.196 230.532 110.779 234.252L110.22 239.225ZM105.479 236.447L105.416 237.001L104.334 236.318L101.633 236.015L101.693 235.478L104.484 235.792L105.881 223.342C105.897 223.199 106.305 222.955 106.806 223.011L106.985 223.031L105.479 236.447ZM102.187 236.077L102.33 236.093L101.688 236.655L100.564 235.533C100.665 235.435 100.892 235.352 101.149 235.327L102.46 223.646C102.492 223.523 103.063 223.279 103.456 223.323L103.617 223.341L102.187 236.077ZM106.19 225.912L102.828 225.535L102.886 225.016L106.249 225.394L106.19 225.912ZM116.251 237.783L116.189 238.337L115.142 237.658L112.745 237.389L112.801 236.888L115.287 237.168L116.488 226.471C116.502 226.346 116.908 226.119 117.373 226.172L117.552 226.192L116.251 237.783ZM113.371 237.46L113.532 237.478L112.849 238.071L111.692 236.927C111.813 236.814 112.08 236.699 112.372 236.677L113.438 227.179C113.47 227.056 114.021 226.828 114.397 226.87L114.558 226.888L113.371 237.46ZM116.734 229.125L113.764 228.791L113.825 228.255L116.794 228.588L116.734 229.125Z" fill="#FEF9F8"/>
<path d="M80.4189 232.297L78.8013 231.524C78.9183 231.298 79.1024 231.152 79.568 231.238L84.5035 217.08C84.5628 216.91 85.1335 216.804 85.5244 216.94L85.7454 217.017L80.4189 232.297ZM80.9814 229.043L79.0267 228.362L77.9234 229.121C77.9234 229.121 77.3224 228.111 76.9732 227.417C77.0894 227.248 77.272 227.216 77.5099 227.299L81.1473 228.567L80.9814 229.043ZM82.1604 225.661L80.4097 225.05L79.3293 225.798C79.3293 225.798 78.7453 224.794 78.3961 224.101C78.5123 223.931 78.6949 223.9 78.9329 223.983L82.3322 225.168L82.1604 225.661ZM83.4181 221.943L81.1575 221.155L80.0312 221.926C80.0312 221.926 79.4021 220.887 79.0929 220.188C79.1921 220.013 79.3746 219.981 79.6126 220.064L83.5899 221.451L83.4181 221.943ZM88.1603 227.752L84.9309 226.626L85.1027 226.133L88.1792 227.206L88.1603 227.752ZM87.2133 231.234L83.7459 230.026L83.9178 229.533L87.2322 230.688L87.2133 231.234ZM83.3024 233.321L81.7019 232.554C81.8358 232.334 82.014 232.205 82.4627 232.285L85.0993 224.722C86.2894 221.362 88.1874 219.527 92.199 219.229L92.3031 219.532C88.9705 220.124 87.3017 221.849 86.1701 225.095L83.3024 233.321ZM90.0832 224.095C89.367 224.017 87.6721 223.903 85.9714 223.806L85.9804 223.561C86.7966 223.407 88.0186 223.128 89.5252 222.852C89.6473 222.666 89.8536 222.567 90.0413 222.575L90.0832 224.095ZM91.1206 234.407L90.937 234.934L90.0158 234.022L87.7212 233.222L87.899 232.713L90.2786 233.542L93.952 223.004C93.9935 222.885 94.4563 222.76 94.9152 222.92L95.1022 222.985L91.1206 234.407ZM88.2311 233.4L88.3841 233.454L87.57 233.875L86.667 232.474C86.8104 232.39 87.0958 232.337 87.4025 232.387L90.6138 223.175C90.6663 223.079 91.277 222.967 91.6339 223.092L91.8039 223.151L88.2311 233.4ZM93.3962 226.184L90.5407 225.189L90.7126 224.696L93.568 225.691L93.3962 226.184Z" fill="#FEF9F8"/>
<path d="M73.7666 212.719C73.843 212.597 74.3219 212.578 74.7491 212.845L74.9323 212.96L67.8678 224.252L67.1605 223.109L63.5439 220.847L63.8303 220.389L67.5232 222.699L73.7666 212.719ZM63.0084 223.739C63.2183 223.573 63.4683 223.581 63.7887 223.781C64.5789 223.299 65.7735 222.645 66.5617 222.267L66.9279 222.497C66.2771 223.13 65.1222 224.297 64.372 225.123L63.0084 223.739ZM56.7742 216.633L55.7438 216.922L55.1778 215.146C55.3763 215.1 55.6071 215.138 55.962 215.318C59.601 209.738 62.0141 206.492 63.2754 206.071C64.012 205.81 64.7809 205.972 65.5134 206.431C65.3034 206.766 65.183 207.094 65.3164 207.39C65.446 207.726 65.9724 208.31 66.5312 208.808L66.3537 209.058C65.7147 208.552 64.6733 207.774 64.307 207.544C64.0018 207.353 63.8607 207.308 63.5935 207.395C62.6452 207.588 60.1404 211.116 56.6063 216.528L56.7742 216.633ZM64.2 221.257L63.244 221.53L62.6247 219.804C62.8079 219.749 63.1341 219.805 63.4775 219.935L69.339 210.565C69.4211 210.468 70.0317 210.51 70.3674 210.72L70.52 210.815L64.0474 221.162L64.2 221.257ZM63.1967 216.277C60.5596 212.313 63.0008 210.379 63.5553 211.936C63.0893 213.089 63.1743 214.989 63.4409 216.26L63.1967 216.277ZM55.9196 216.098L56.206 215.64L61.0892 218.695L60.6197 219.038L55.9196 216.098ZM57.389 220.096C57.5455 219.982 57.8088 219.934 58.135 220.159C60.2918 218.409 62.7155 217.08 64.8737 216.583L64.9918 216.869C63.0548 217.759 60.6328 219.493 58.6591 221.528L57.389 220.096ZM66.07 216.503L66.3564 216.045L70.6139 218.709L70.3275 219.167L66.07 216.503ZM68.8767 212.017L69.1631 211.559L73.4206 214.222L73.1342 214.68L68.8767 212.017Z" fill="#FEF9F8"/>
<path d="M43.0392 206.663L42.4881 205.277L42.6413 205.43L43.3901 204.677C43.3901 204.677 43.6582 204.943 44.207 205.489L43.0392 206.663ZM52.4331 197.651C51.6173 197.221 49.6419 196.297 47.6666 195.399L47.755 195.157C48.7994 195.408 50.8117 195.861 52.837 196.428L52.4331 197.651ZM43.1881 205.263L43.1109 204.957L51.4246 196.598L52.4186 197.028L51.744 197.017C52.162 196.265 52.849 196.186 53.1421 196.3L52.6247 197.918C52.0514 197.729 51.9115 197.742 51.6576 197.997L43.8135 205.885L43.1881 205.263ZM39.4865 206.075C37.7091 203.114 40.0101 202.102 40.2685 203.476C39.8503 204.152 39.6753 205.298 39.7157 206.125L39.4865 206.075ZM42.1374 193.505C42.3665 193.504 42.5195 193.606 42.6605 193.949C44.0611 194.149 45.5769 194.565 46.6474 195.045L46.559 195.313C45.4386 195.189 43.7203 195.181 42.257 195.325L42.1374 193.505ZM44.8778 199.505C46.6637 196.331 46.4633 192.907 44.8381 189.743L44.9905 189.615C45.3732 189.919 45.8951 189.956 46.4163 189.713C47.66 193.006 47.3761 196.201 45.1963 199.619L44.8778 199.505ZM38.4039 201.216L37.424 201.257L37.1899 199.45C37.3808 199.437 37.6739 199.55 37.9799 199.753L42.0543 195.656C42.1432 195.592 42.742 195.807 43.01 196.074L43.1376 196.2L38.2763 201.089L38.4039 201.216ZM41.8529 196.497L42.221 196.127L47.4411 201.318L47.073 201.688L41.8529 196.497ZM39.8349 198.552L40.2156 198.169L45.4102 203.335L45.0294 203.717L39.8349 198.552ZM37.7658 200.581L38.1466 200.198L43.3411 205.364L42.9603 205.747L37.7658 200.581ZM53.1362 203.377C52.983 203.225 52.932 203.199 52.5378 203.315C51.8765 203.52 51.8765 203.52 44.4637 206.277L44.2974 205.985C46.4584 204.986 50.5263 203.142 51.3143 202.733C51.8354 202.464 52.3182 202.157 52.6101 201.838C53.1686 201.277 53.3951 200.334 54.4615 199.338C55.0328 198.815 55.6181 198.737 56.052 199.169C56.269 199.384 56.181 199.779 55.813 200.2C54.3397 201.324 53.4262 202.396 53.5421 202.867C53.5937 203.147 53.7471 203.375 53.9897 203.667L53.7105 203.948C53.7105 203.948 53.2766 203.517 53.1362 203.377ZM48.9901 209.18C46.6644 205.826 48.952 204.572 49.3504 205.984C49.0472 206.799 49.0511 208.225 49.2192 209.179L48.9901 209.18ZM45.0755 211.201C42.7622 207.733 45.0877 206.39 45.5371 207.827C45.1958 208.681 45.1746 210.208 45.3301 211.201L45.0755 211.201Z" fill="#FEF9F8"/>
<path d="M25.4012 181.641C25.4012 181.641 25.4995 180.855 25.6222 180.308C25.8184 180.248 25.9714 180.321 26.0966 180.519L28.5139 184.336L28.15 184.737L26.2431 181.726L25.4012 181.641ZM23.8749 182.629C23.8749 182.629 23.9732 181.843 24.1111 181.286C24.3073 181.226 24.4604 181.3 24.5952 181.513L26.9932 185.299L26.6141 185.71L24.7168 182.714L23.8749 182.629ZM33.9002 182.075C35.5771 179.139 34.722 175.568 32.5815 171.448L32.7736 171.348C33.1001 171.695 33.572 171.801 34.0708 171.613C35.9142 175.836 36.2771 179.1 34.2216 182.213L33.9002 182.075ZM30.6861 177.101L29.5852 176.776L29.9314 175.001C30.1301 175.046 30.2665 175.194 30.5224 175.564C34.0909 175.648 37.3167 177.781 40.4655 181.71L40.2951 181.946C37.1424 178.616 33.8679 176.642 30.5802 176.934L30.6861 177.101ZM30.0312 176.067L30.4722 175.788L35.1527 183.178L34.7984 183.595L30.0312 176.067ZM27.2742 179.923L29.905 178.256L30.4346 179.093L27.8038 180.759L27.2742 179.923ZM29.0077 182.66L31.6385 180.994L32.1682 181.83L29.5374 183.496L29.0077 182.66ZM28.0721 176.136L28.5283 175.847L33.7577 184.105L33.3015 184.393L28.0721 176.136ZM30.7427 186.611L30.5111 185.202L26.0521 178.161L25.2157 178.052L25.3379 176.461C25.5174 176.476 25.6897 176.58 25.9183 176.84L28.3666 175.289C28.4274 175.251 28.8867 175.471 29.166 175.912L29.2719 176.079L26.489 177.842L31.0828 185.095L33.6832 183.449C33.7593 183.4 34.1551 183.555 34.4633 184.041L34.5596 184.193L30.7427 186.611ZM25.5313 188.441L25.2997 187.032L22.1119 181.999L21.2507 181.884L21.3978 180.299C21.5772 180.313 21.7399 180.402 21.9781 180.677L25.0804 178.713C25.1564 178.664 25.6004 178.894 25.8797 179.335L25.976 179.488L22.5393 181.664L25.8714 186.926L29.1713 184.836C29.2474 184.788 29.6585 184.932 29.9666 185.419L30.0629 185.571L25.5313 188.441ZM37.5695 186.591C37.4635 186.424 37.4098 186.372 37.0038 186.438C36.3327 186.522 36.3327 186.522 28.8413 188.049L28.7191 187.722C30.9419 187.06 35.0832 185.928 35.9287 185.649C36.4827 185.447 37.0119 185.24 37.3921 184.999C38.0668 184.55 38.5119 183.672 39.7877 182.928C40.4457 182.554 41.0337 182.607 41.3611 183.124C41.5345 183.398 41.3763 183.754 40.9089 184.093C39.2534 184.843 38.0794 185.714 38.0591 186.153C38.0571 186.453 38.1463 186.694 38.3182 187.033L37.9836 187.245C37.9836 187.245 37.6754 186.758 37.5695 186.591ZM31.9946 191.144C30.3549 187.815 32.8843 187.065 32.9694 188.545C32.4807 189.153 32.2283 190.336 32.2181 191.194L31.9946 191.144ZM27.8614 192.356C26.2429 188.757 28.8428 187.984 28.9071 189.499C28.3769 190.175 28.0966 191.482 28.1001 192.396L27.8614 192.356Z" fill="#FEF9F8"/>
<path d="M26.1449 164.105C26.0426 163.816 26.0514 163.679 26.1657 163.41C27.2526 161.305 26.8959 159.331 25.7764 156.175C25.0963 154.258 24.5547 152.732 23.7717 150.794L23.9922 150.716C24.2806 151.205 24.7561 151.361 25.2951 151.266C25.8368 152.792 26.3845 154.336 27.0285 156.151C28.178 159.391 28.19 161.202 26.731 163.496C26.5548 163.806 26.6489 163.964 26.9296 164.055C27.5989 164.219 29.0884 164.703 30.0952 164.957C30.2008 164.824 30.3546 164.826 30.5155 164.903L29.5534 166.39C28.4629 165.631 26.2833 164.495 26.1449 164.105ZM13.6519 165.768C13.7123 161.2 16.8194 161.129 16.3657 162.704C15.3292 163.282 14.3212 164.747 13.8538 165.906L13.6519 165.768ZM15.3021 157.714L14.2947 157.136L15.0259 155.482C15.2267 155.564 15.3268 155.738 15.4893 156.196C19.1337 157.424 23.339 160.287 26.546 163.943L26.3518 164.203C23.2267 161.263 18.714 158.395 15.2299 157.511L15.3021 157.714ZM15.0614 157.036L15.5703 156.855L19.7653 168.679L19.3105 169.012L15.0614 157.036Z" fill="#FEF9F8"/>
<path d="M12.6872 136.06C12.8565 136.112 12.9891 136.314 13.0933 136.737L14.3089 136.593C14.3152 136.647 14.3426 136.879 14.4416 137.72L12.3143 137.97L12.6872 136.06ZM21.8656 137.352C21.5963 136.604 20.8693 134.896 20.1107 133.227L20.3683 133.106C20.8858 133.806 22.0103 135.196 23.0317 136.635L21.8656 137.352ZM13.1764 136.981L13.3078 136.711L21.7096 135.721L22.3156 136.864L21.7687 136.53C22.5489 136.075 23.1557 136.457 23.3303 136.708L22.0266 137.641C21.5511 136.99 21.4133 136.898 21.1095 136.934L13.2797 137.857L13.1764 136.981ZM7.66355 144.336C8.56187 140.733 11.151 141.479 10.3899 142.71C9.4709 142.909 8.4132 143.777 7.82974 144.516L7.66355 144.336ZM10.7654 142.974C15.8843 142.425 20.405 142.182 24.3047 144.514L24.1533 144.767C20.1297 143.23 15.7047 143.516 10.9129 144.225L10.7654 142.974ZM13.7512 140.012L14.2875 139.949L14.6857 143.328L14.1494 143.391L13.7512 140.012ZM13.8502 140.852L13.0572 140.275L13.9897 138.806C14.1653 138.912 14.28 139.116 14.36 139.487C19.684 138.987 22.1015 139.046 22.9545 139.67C23.4698 140.045 23.7402 140.647 23.814 141.273C23.4565 141.315 23.1568 141.387 23.0033 141.622C22.8477 141.84 22.7658 142.375 22.7512 142.866L22.4273 142.886C22.4198 142.362 22.3881 141.477 22.3523 141.173C22.3165 140.869 22.246 140.733 22.0861 140.607C21.5266 140.165 18.9544 140.178 13.8292 140.674L13.8502 140.852ZM9.37358 140.238C9.37358 140.238 10.0148 139.22 10.5016 138.583C10.7024 138.595 10.8129 138.763 10.8424 139.014L11.6662 146.003L11.1468 146.21L10.5252 140.936L9.37358 140.238ZM7.18107 135.476C7.36827 135.526 7.55233 135.704 7.58291 136.117C9.95012 136.672 12.0167 137.752 13.4093 139.11L13.2421 139.383C11.6772 138.408 9.29624 137.583 6.81763 137.313L7.18107 135.476ZM8.23178 131.474C8.23178 131.474 8.85093 130.422 9.35766 129.8C9.56062 129.831 9.66685 129.963 9.69635 130.213L10.5602 137.543L10.0239 137.606L9.38551 132.189L8.23178 131.474ZM13.8005 129.512C13.954 129.585 14.1129 129.856 14.0278 130.21C14.7777 130.883 16.0409 132.221 16.9035 133.388L16.7479 133.605C15.6425 132.684 13.8935 131.531 12.968 131.06L13.8005 129.512ZM11.3096 130.676C11.4673 130.784 11.4926 130.999 11.397 131.264C12.1134 132.575 12.9215 135.126 13.3636 137.031L13.0965 137.226C12.4453 135.544 11.3427 133.264 10.4465 132.119L11.3096 130.676ZM12.3767 134.809C16.2967 133.622 19.8106 131.45 20.9583 128.27L21.1412 128.284C21.3012 128.719 21.7072 129.088 22.336 129.195C20.6552 132.311 17.2453 133.982 12.5219 135.118L12.3767 134.809Z" fill="#FEF9F8"/>
</svg>
